/* XPM */
static char * E64_xpm[] = {
"64 64 2 1",
" 	c #FFFFFF",
".	c #FDFF00",
"                                                                ",
"                                                                ",
"                                                                ",
"                                                                ",
"                                                                ",
"                                                                ",
"                                                                ",
"                                                                ",
"               .............................                    ",
"               .............................                    ",
"               .............................                    ",
"               .............................                    ",
"               .............................                    ",
"               .......                                          ",
"               .......                                          ",
"               .......                                          ",
"               .......                                          ",
"               .......                                          ",
"               .......                                          ",
"               .......                                          ",
"               .......                                          ",
"               .......                                          ",
"               .......                                          ",
"               .......                                          ",
"               .......                                          ",
"               .......                                          ",
"               ............................                     ",
"               ............................                     ",
"               ............................                     ",
"               ............................                     ",
"               ............................                     ",
"               .......                                          ",
"               .......                                          ",
"               .......                                          ",
"               .......                                          ",
"               .......                                          ",
"               .......                                          ",
"               .......                                          ",
"               .......                                          ",
"               .......                                          ",
"               .......                                          ",
"               .......                                          ",
"               .......                                          ",
"               .......                                          ",
"               .......                                          ",
"               .......                                          ",
"               .......                                          ",
"               .......                                          ",
"               ..............................                   ",
"               ..............................                   ",
"               ..............................                   ",
"               ..............................                   ",
"               ..............................                   ",
"                                                                ",
"                                                                ",
"                                                                ",
"                                                                ",
"                                                                ",
"                                                                ",
"                                                                ",
"                                                                ",
"                                                                ",
"                                                                ",
"                                                                "};
