/* XPM */
static char * N64_xpm[] = {
"64 64 2 1",
" 	c #FFFFFF",
".	c #FF0000",
"                                                                ",
"                                                                ",
"                                                                ",
"                                                                ",
"                                                                ",
"                                                                ",
"                                                                ",
"                                                                ",
"               .........                   .......              ",
"               ..........                  .......              ",
"               ..........                  .......              ",
"               ...........                 .......              ",
"               ...........                 .......              ",
"               ............                .......              ",
"               ............                .......              ",
"               .............               .......              ",
"               ..............              .......              ",
"               ..............              .......              ",
"               ...............             .......              ",
"               ....... .......             .......              ",
"               ....... ........            .......              ",
"               .......  .......            .......              ",
"               .......  ........           .......              ",
"               .......   .......           .......              ",
"               .......   ........          .......              ",
"               .......    .......          .......              ",
"               .......    ........         .......              ",
"               .......     .......         .......              ",
"               .......     ........        .......              ",
"               .......      .......        .......              ",
"               .......      ........       .......              ",
"               .......       ........      .......              ",
"               .......       ........      .......              ",
"               .......        ........     .......              ",
"               .......         .......     .......              ",
"               .......         ........    .......              ",
"               .......          .......    .......              ",
"               .......          ........   .......              ",
"               .......           .......   .......              ",
"               .......           ........  .......              ",
"               .......            .......  .......              ",
"               .......            ........ .......              ",
"               .......             ....... .......              ",
"               .......             ...............              ",
"               .......              ..............              ",
"               .......              ..............              ",
"               .......               .............              ",
"               .......               .............              ",
"               .......                ............              ",
"               .......                ............              ",
"               .......                 ...........              ",
"               .......                  ..........              ",
"               .......                  ..........              ",
"                                                                ",
"                                                                ",
"                                                                ",
"                                                                ",
"                                                                ",
"                                                                ",
"                                                                ",
"                                                                ",
"                                                                ",
"                                                                ",
"                                                                "};
