/* XPM */
static char * S64_xpm[] = {
"64 64 2 1",
" 	c #FFFFFF",
".	c #001AFF",
"                                                                ",
"                                                                ",
"                                                                ",
"                                                                ",
"                                                                ",
"                                                                ",
"                                                                ",
"                      ................                          ",
"                   ........................                     ",
"                  .........................                     ",
"                ...........................                     ",
"               ............................                     ",
"               ............................                     ",
"              ..........            .......                     ",
"              ........                 ....                     ",
"             ........                                           ",
"             ........                                           ",
"             .......                                            ",
"             .......                                            ",
"             .......                                            ",
"             .......                                            ",
"             .......                                            ",
"             ........                                           ",
"             .........                                          ",
"             ..........                                         ",
"              .............                                     ",
"              .................                                 ",
"               ....................                             ",
"                ......................                          ",
"                 .......................                        ",
"                   ......................                       ",
"                     .....................                      ",
"                         ..................                     ",
"                             ...............                    ",
"                                 ...........                    ",
"                                   ..........                   ",
"                                    .........                   ",
"                                     ........                   ",
"                                      .......                   ",
"                                      .......                   ",
"                                      .......                   ",
"                                      .......                   ",
"                                      .......                   ",
"                                      .......                   ",
"                                     ........                   ",
"             ...                    .........                   ",
"             .....                 .........                    ",
"             ........            ...........                    ",
"             ..............................                     ",
"             ..............................                     ",
"             .............................                      ",
"             ...........................                        ",
"                .......................                         ",
"                   .................                            ",
"                                                                ",
"                                                                ",
"                                                                ",
"                                                                ",
"                                                                ",
"                                                                ",
"                                                                ",
"                                                                ",
"                                                                ",
"                                                                "};
