/* XPM */
static char * W64_xpm[] = {
"64 64 2 1",
" 	c #FFFFFF",
".	c #1CB400",
"                                                                ",
"                                                                ",
"                                                                ",
"                                                                ",
"                                                                ",
"                                                                ",
"                                                                ",
"                                                                ",
"   .......                  ........                 ........   ",
"   .......                 .........                 .......    ",
"   .......                 .........                 .......    ",
"   ........                ..........                .......    ",
"    .......                ..........               ........    ",
"    .......               ...........               .......     ",
"    .......               ...........               .......     ",
"    ........              ............              .......     ",
"     .......              ............             ........     ",
"     .......             ...... ......             .......      ",
"     .......             ...... ......             .......      ",
"     ........            ...... .......            .......      ",
"      .......            ......  ......           ........      ",
"      .......           ......   ......           .......       ",
"      .......           ......   ......           .......       ",
"      ........          ......   .......          .......       ",
"       .......          ......    ......         ........       ",
"       .......         ......     ......         .......        ",
"       .......         ......     ......         .......        ",
"       ........        ......     .......        .......        ",
"        .......        ......      ......       ........        ",
"        .......       ......       ......       .......         ",
"        .......       ......       ......       .......         ",
"        ........      ......       .......      .......         ",
"         .......      ......        ......     ........         ",
"         .......     ......         ......     .......          ",
"         .......     ......         ......     .......          ",
"         ........    ......         .......    .......          ",
"          .......    ......          ......   ........          ",
"          .......   ......           ......   .......           ",
"          .......   ......           ......   .......           ",
"          ........  ......           .......  .......           ",
"           .......  ......            ...... ........           ",
"           ....... ......             ...... .......            ",
"           ....... ......             ...... .......            ",
"           ..............             ..............            ",
"            .............              .............            ",
"            .............              ............             ",
"            ............               ............             ",
"            ............               ............             ",
"             ...........                ...........             ",
"             ...........                ..........              ",
"             ..........                 ..........              ",
"             ..........                 ..........              ",
"              .........                  .........              ",
"                                                                ",
"                                                                ",
"                                                                ",
"                                                                ",
"                                                                ",
"                                                                ",
"                                                                ",
"                                                                ",
"                                                                ",
"                                                                ",
"                                                                "};
